<?xml version="1.0" encoding="UTF-8"?>
<svg id="Layer_2" data-name="Layer 2" xmlns="http://www.w3.org/2000/svg" viewBox="0 0 299.77 93.01">
  <g id="Layer_1-2" data-name="Layer 1">
    <g>
      <g>
        <path d="M0,62.82V2.58H65.41V19.79l-10.76,12.91,11.62,12.91v17.21H0Zm21.08-17.21h21.52v-.86l-10.76-12.05,9.9-12.05v-.86H21.08v25.82Z"/>
        <path d="M140.28,37.87v24.96h-59.38V2.58h21.08V45.61h18.07v-7.75h20.22Z"/>
        <path d="M184.59,65.41c-21.51,0-37.44-15.92-37.44-32.7S163.08,0,184.59,0s37.44,15.92,37.44,32.7-15.92,32.7-37.44,32.7Zm0-48.19c-8.61,0-15.49,6.88-15.49,15.49s6.88,15.49,15.49,15.49,15.49-6.88,15.49-15.49-6.88-15.49-15.49-15.49Z"/>
        <path d="M261.27,20.65h.86l10.33-18.07h24.53l-18.93,30.12,20.65,30.12h-24.53l-12.05-18.93h-.86l-12.05,18.93h-24.53l20.65-30.12L226.42,2.58h24.53l10.33,18.07Z"/>
      </g>
      <g>
        <path d="M8.74,71.25c4.9,0,7.35,2.09,7.35,6.28s-2.48,6.34-7.38,6.34H2.46v8.73H0v-21.34H8.74Zm-6.28,10.49h6.13c1.73,0,2.99-.36,3.83-1.05,.81-.69,1.23-1.73,1.23-3.17s-.42-2.48-1.26-3.11c-.84-.72-2.09-1.05-3.8-1.05H2.46v8.37Z"/>
        <path d="M47.19,71.25l8.4,21.34h-2.66l-2.27-5.98h-9.8l-2.27,5.98h-2.63l8.4-21.34h2.84Zm2.69,13.3l-4.04-10.67h-.12l-4.09,10.67h8.25Z"/>
        <path d="M76.51,71.25l6.79,10.4,6.79-10.4h2.96l-8.52,12.67v8.67h-2.45v-8.67l-8.52-12.67h2.96Z"/>
        <path d="M119.23,71.25l7.95,18.2h.09l7.92-18.2h3.05v21.34h-2.45v-16.98h-.09l-7.38,16.98h-2.21l-7.38-16.98h-.09v16.98h-2.45v-21.34h3.05Z"/>
        <path d="M178.54,71.25v2.12h-12.67v7.14h11.96v2.12h-11.96v7.83h13.18v2.12h-15.63v-21.34h15.12Z"/>
        <path d="M205.29,71.25l12.08,17.37h.09v-17.37h2.45v21.34h-2.51l-12.14-17.55h-.09v17.55h-2.45v-21.34h2.57Z"/>
        <path d="M260.71,71.25v2.12h-7.53v19.22h-2.42v-19.22h-7.53v-2.12h17.49Z"/>
        <path d="M296.84,72.48c1.43,1.14,2.24,2.84,2.45,5.08h-2.42c-.27-1.55-.87-2.69-1.79-3.44-.96-.78-2.3-1.14-4.04-1.14-1.58,0-2.81,.24-3.71,.78-1.02,.6-1.53,1.49-1.53,2.72,0,1.08,.6,1.94,1.82,2.6,.54,.3,1.85,.75,3.92,1.35,2.81,.84,4.66,1.52,5.56,2.06,1.76,1.08,2.66,2.57,2.66,4.51s-.75,3.35-2.24,4.42c-1.5,1.05-3.5,1.58-6.04,1.58s-4.48-.54-5.92-1.61c-1.67-1.29-2.6-3.23-2.78-5.86h2.42c.21,1.85,.87,3.23,1.94,4.1,.99,.78,2.42,1.2,4.33,1.2,1.73,0,3.17-.33,4.25-.99s1.61-1.55,1.61-2.69c0-1.35-.72-2.39-2.12-3.14-.6-.36-2.12-.87-4.51-1.55-2.57-.78-4.21-1.38-4.9-1.73-1.64-.96-2.45-2.33-2.45-4.12s.78-3.32,2.36-4.33c1.41-.96,3.23-1.43,5.44-1.43,2.39,0,4.3,.54,5.68,1.64Z"/>
      </g>
    </g>
  </g>
</svg>